<svg xmlns="http://www.w3.org/2000/svg" version="1.1" xmlns:xlink="http://www.w3.org/1999/xlink" xmlns:svgjs="http://svgjs.dev/svgjs" width="2000" height="1252" viewBox="0 0 2000 1252"><g transform="matrix(1,0,0,1,-1.2121212121212466,-2.01935483870966)"><svg viewBox="0 0 396 248" data-background-color="#ffffff" preserveAspectRatio="xMidYMid meet" height="1252" width="2000" xmlns="http://www.w3.org/2000/svg" xmlns:xlink="http://www.w3.org/1999/xlink"><g id="tight-bounds" transform="matrix(1,0,0,1,0.2400000000000091,0.4000000000000057)"><svg viewBox="0 0 395.52 247.2" height="247.2" width="395.52"><g><svg></svg></g><g><svg viewBox="0 0 395.52 247.2" height="247.2" width="395.52"><g transform="matrix(1,0,0,1,75.54432,87.72956981132076)"><svg viewBox="0 0 244.43135999999998 71.74086037735847" height="71.74086037735847" width="244.43135999999998"><g><svg viewBox="0 0 244.43135999999998 71.74086037735847" height="71.74086037735847" width="244.43135999999998"><g><svg viewBox="0 0 244.43135999999998 71.74086037735847" height="71.74086037735847" width="244.43135999999998"><g id="textblocktransform"><svg viewBox="0 0 244.43135999999998 71.74086037735847" height="71.74086037735847" width="244.43135999999998" id="textblock"><g><svg viewBox="0 0 244.43135999999998 71.74086037735847" height="71.74086037735847" width="244.43135999999998"><g transform="matrix(1,0,0,1,0,0)"><svg width="244.43135999999998" viewBox="2.8 -28 95.39 28" height="71.74086037735847" data-palette-color="#000000"><path d="M15.2-14Q15.2-12.85 15-12L15-12 11-12Q10.8-12.85 10.8-14L10.8-14Q10.8-15.2 11-16L11-16 3-16Q2.8-16.85 2.8-18L2.8-18Q2.8-19.2 3-20L3-20 17-20Q17.2-19.2 17.2-18L17.2-18Q17.2-16.85 17-16L17-16 15-16Q15.2-15.2 15.2-14L15.2-14ZM11.2-10Q11.2-8.85 11-8L11-8 7-8Q6.8-8.85 6.8-10L6.8-10Q6.8-11.2 7-12L7-12 11-12Q11.2-11.2 11.2-10L11.2-10ZM17-4Q17.2-3.2 17.2-2L17.2-2Q17.2-0.85 17 0L17 0 3 0Q2.8-0.85 2.8-2L2.8-2Q2.8-3.2 3-4L3-4Q2.8-4.85 2.8-6L2.8-6Q2.8-7.2 3-8L3-8 7-8Q7.2-7.2 7.2-6L7.2-6Q7.2-4.85 7-4L7-4 17-4ZM38.2-14Q38.2-12.85 38-12L38-12Q38.2-11.2 38.2-10L38.2-10Q38.2-8.85 38-8L38-8 27.5-8Q27.7-7.2 27.7-6L27.7-6Q27.7-4.85 27.5-4L27.5-4 36-4Q36.2-3.2 36.2-2L36.2-2Q36.2-0.85 36 0L36 0 26 0Q25.8-0.85 25.8-2L25.8-2Q25.8-3.2 26-4L26-4 23.5-4Q23.3-4.85 23.3-6L23.3-6Q23.3-7.2 23.5-8L23.5-8 22-8Q21.8-8.85 21.8-10L21.8-10Q21.8-11.2 22-12L22-12 23.5-12Q23.3-12.85 23.3-14L23.3-14Q23.3-15.2 23.5-16L23.5-16 26-16Q25.8-16.85 25.8-18L25.8-18Q25.8-19.2 26-20L26-20 36-20Q36.2-19.2 36.2-18L36.2-18Q36.2-16.85 36-16L36-16 38-16Q38.2-15.2 38.2-14L38.2-14ZM34-12Q33.8-12.85 33.8-14L33.8-14Q33.8-15.2 34-16L34-16 27.5-16Q27.7-15.2 27.7-14L27.7-14Q27.7-12.85 27.5-12L27.5-12 34-12ZM58-16Q58.2-15.2 58.2-14L58.2-14Q58.2-12.85 58-12L58-12 54-12Q53.8-12.85 53.8-14L53.8-14Q53.8-15.2 54-16L54-16 50.5-16Q50.7-15.2 50.7-14L50.7-14Q50.7-12.85 50.5-12L50.5-12 49-12Q49.2-11.2 49.2-10L49.2-10Q49.2-8.85 49-8L49-8Q49.2-7.2 49.2-6L49.2-6Q49.2-4.85 49-4L49-4 52-4Q52.2-3.2 52.2-2L52.2-2Q52.2-0.85 52 0L52 0 42 0Q41.8-0.85 41.8-2L41.8-2Q41.8-3.2 42-4L42-4 45-4Q44.8-4.85 44.8-6L44.8-6Q44.8-7.2 45-8L45-8Q44.8-8.85 44.8-10L44.8-10Q44.8-11.2 45-12L45-12Q44.8-12.85 44.8-14L44.8-14Q44.8-15.2 45-16L45-16 42-16Q41.8-16.85 41.8-18L41.8-18Q41.8-19.2 42-20L42-20 47-20Q47.2-19.2 47.2-18L47.2-18Q47.2-16.85 47-16L47-16 49-16Q48.8-16.85 48.8-18L48.8-18Q48.8-19.2 49-20L49-20 56.5-20Q56.7-19.2 56.7-18L56.7-18Q56.7-16.85 56.5-16L56.5-16 58-16ZM77.99-16Q78.19-15.2 78.19-14L78.19-14Q78.19-12.85 77.99-12L77.99-12Q78.19-11.2 78.19-10L78.19-10Q78.19-8.85 77.99-8L77.99-8 76.49-8Q76.69-7.2 76.69-6L76.69-6Q76.69-4.85 76.49-4L76.49-4 73.99-4Q74.19-3.2 74.19-2L74.19-2Q74.19-0.85 73.99 0L73.99 0 65.99 0Q65.79-0.85 65.79-2L65.79-2Q65.79-3.2 65.99-4L65.99-4 63.49-4Q63.29-4.85 63.29-6L63.29-6Q63.29-7.2 63.49-8L63.49-8 61.99-8Q61.79-8.85 61.79-10L61.79-10Q61.79-11.2 61.99-12L61.99-12Q61.79-12.85 61.79-14L61.79-14Q61.79-15.2 61.99-16L61.99-16Q61.79-16.85 61.79-18L61.79-18Q61.79-19.2 61.99-20L61.99-20 63.49-20Q63.29-20.85 63.29-22L63.29-22Q63.29-23.2 63.49-24L63.49-24 65.99-24Q65.79-24.85 65.79-26L65.79-26Q65.79-27.2 65.99-28L65.99-28 73.99-28Q74.19-27.2 74.19-26L74.19-26Q74.19-24.85 73.99-24L73.99-24 76.49-24Q76.69-23.2 76.69-22L76.69-22Q76.69-20.85 76.49-20L76.49-20 77.99-20Q78.19-19.2 78.19-18L78.19-18Q78.19-16.85 77.99-16L77.99-16ZM73.99-8Q73.79-8.85 73.79-10L73.79-10Q73.79-11.2 73.99-12L73.99-12Q73.79-12.85 73.79-14L73.79-14Q73.79-15.2 73.99-16L73.99-16Q73.79-16.85 73.79-18L73.79-18Q73.79-19.2 73.99-20L73.99-20 72.49-20Q72.29-20.85 72.29-22L72.29-22Q72.29-23.2 72.49-24L72.49-24 67.49-24Q67.69-23.2 67.69-22L67.69-22Q67.69-20.85 67.49-20L67.49-20 65.99-20Q66.19-19.2 66.19-18L66.19-18Q66.19-16.85 65.99-16L65.99-16Q66.19-15.2 66.19-14L66.19-14Q66.19-12.85 65.99-12L65.99-12Q66.19-11.2 66.19-10L66.19-10Q66.19-8.85 65.99-8L65.99-8 67.49-8Q67.69-7.2 67.69-6L67.69-6Q67.69-4.85 67.49-4L67.49-4 72.49-4Q72.29-4.85 72.29-6L72.29-6Q72.29-7.2 72.49-8L72.49-8 73.99-8ZM97.99-12Q98.19-11.2 98.19-10L98.19-10Q98.19-8.85 97.99-8L97.99-8Q98.19-7.2 98.19-6L98.19-6Q98.19-4.85 97.99-4L97.99-4 95.99-4Q96.19-3.2 96.19-2L96.19-2Q96.19-0.85 95.99 0L95.99 0 83.99 0Q83.79-0.85 83.79-2L83.79-2Q83.79-3.2 83.99-4L83.99-4 81.99-4Q81.79-4.85 81.79-6L81.79-6Q81.79-7.2 81.99-8L81.99-8 85.99-8Q86.19-7.2 86.19-6L86.19-6Q86.19-4.85 85.99-4L85.99-4 93.99-4Q93.79-4.85 93.79-6L93.79-6Q93.79-7.2 93.99-8L93.99-8Q93.79-8.85 93.79-10L93.79-10Q93.79-11.2 93.99-12L93.99-12 83.99-12Q83.79-12.85 83.79-14L83.79-14Q83.79-15.2 83.99-16L83.99-16 81.99-16Q81.79-16.85 81.79-18L81.79-18Q81.79-19.2 81.99-20L81.99-20Q81.79-20.85 81.79-22L81.79-22Q81.79-23.2 81.99-24L81.99-24 83.99-24Q83.79-24.85 83.79-26L83.79-26Q83.79-27.2 83.99-28L83.99-28 95.99-28Q96.19-27.2 96.19-26L96.19-26Q96.19-24.85 95.99-24L95.99-24 97.99-24Q98.19-23.2 98.19-22L98.19-22Q98.19-20.85 97.99-20L97.99-20 93.99-20Q93.79-20.85 93.79-22L93.79-22Q93.79-23.2 93.99-24L93.99-24 85.99-24Q86.19-23.2 86.19-22L86.19-22Q86.19-20.85 85.99-20L85.99-20Q86.19-19.2 86.19-18L86.19-18Q86.19-16.85 85.99-16L85.99-16 95.99-16Q96.19-15.2 96.19-14L96.19-14Q96.19-12.85 95.99-12L95.99-12 97.99-12Z" opacity="1" transform="matrix(1,0,0,1,0,0)" fill="#ffffff" class="wordmark-text-0" data-fill-palette-color="primary" id="text-0"></path></svg></g></svg></g></svg></g></svg></g></svg></g></svg></g><g><path d="M0 123.6c0-68.262 55.338-123.6 123.6-123.6 52.636 0 97.587 32.902 115.409 79.261h-3.473c-17.655-44.534-61.118-76.027-111.936-76.026-66.476 0-120.365 53.889-120.365 120.365 0 66.476 53.889 120.365 120.365 120.365 50.818 0 94.281-31.493 111.936-76.026l3.473 0c-17.822 46.359-62.773 79.261-115.409 79.261-68.262 0-123.6-55.338-123.6-123.6z" fill="#ffffff" stroke="transparent" data-fill-palette-color="tertiary"></path></g></svg></g><defs></defs></svg><rect width="395.52" height="247.2" fill="none" stroke="none" visibility="hidden"></rect></g></svg></g></svg>